<svg xmlns="http://www.w3.org/2000/svg" version="1.1" xmlns:xlink="http://www.w3.org/1999/xlink" xmlns:svgjs="http://svgjs.dev/svgjs" width="2000" height="535" viewBox="0 0 2000 535"><g transform="matrix(1,0,0,1,-1.2121212121212466,-1.2289045946010333)"><svg viewBox="0 0 396 106" data-background-color="#ffffff" preserveAspectRatio="xMidYMid meet" height="535" width="2000" xmlns="http://www.w3.org/2000/svg" xmlns:xlink="http://www.w3.org/1999/xlink"><g id="tight-bounds" transform="matrix(1,0,0,1,0.2400000000000091,0.2434839009863765)"><svg viewBox="0 0 395.52 105.51271912891852" height="105.51271912891852" width="395.52"><g><svg viewBox="0 0 573.4556562305986 152.98054608805828" height="105.51271912891852" width="395.52"><g transform="matrix(1,0,0,1,177.93565623059865,55.34868292682927)"><svg viewBox="0 0 395.52 42.283180234399744" height="42.283180234399744" width="395.52"><g id="textblocktransform"><svg viewBox="0 0 395.52 42.283180234399744" height="42.283180234399744" width="395.52" id="textblock"><g><svg viewBox="0 0 395.52 42.283180234399744" height="42.283180234399744" width="395.52"><g transform="matrix(1,0,0,1,0,0)"><svg width="395.52" viewBox="3.78 -33.13 315.67 33.760000000000005" height="42.283180234399744" data-palette-color="#091627"><path d="M25.6-7.03L26.68 0 22.4 0 21.5-6.55Q21.25-8.4 20.65-9.76 20.05-11.13 18.81-11.9 17.57-12.68 15.3-12.68L15.3-12.68 6.63-12.7 6.63-15.98 15.9-16Q19.18-16 20.58-17.61 21.98-19.23 21.98-22L21.98-22 21.98-22.75Q21.98-25.5 20.55-27.01 19.13-28.53 15.8-28.53L15.8-28.53 6.5-28.53 6.5-31.95 16.35-31.95Q21.5-31.95 23.84-29.69 26.18-27.43 26.18-23.45L26.18-23.45 26.18-22.6Q26.18-19.48 24.7-17.49 23.23-15.5 19.8-15.08L19.8-15.08 19.8-14.58 18.03-15.2Q20.8-15 22.31-13.99 23.83-12.98 24.53-11.23 25.23-9.47 25.6-7.03L25.6-7.03ZM7.88-13.3L7.88 0 3.78 0 3.78-31.95 7.85-31.95 7.85-14.88 7.88-13.3ZM41.7 0.55L41.7 0.55Q36.12 0.55 33.3-2.18 30.47-4.9 30.47-9.98L30.47-9.98 30.47-14.33Q30.47-19.48 33.1-22.26 35.72-25.05 40.77-25.05L40.77-25.05Q44.17-25.05 46.45-23.79 48.72-22.53 49.87-20.2 51.02-17.88 51.02-14.65L51.02-14.65 51.02-13.75Q51.02-12.95 50.96-12.15 50.9-11.35 50.8-10.58L50.8-10.58 47.07-10.58Q47.12-11.78 47.14-12.85 47.15-13.93 47.15-14.83L47.15-14.83Q47.15-17.05 46.44-18.59 45.72-20.13 44.31-20.94 42.9-21.75 40.77-21.75L40.77-21.75Q37.62-21.75 36.05-19.93 34.47-18.1 34.47-14.7L34.47-14.7 34.47-12.38 34.5-11.88 34.5-9.55Q34.5-8.03 34.95-6.8 35.4-5.58 36.36-4.69 37.32-3.8 38.81-3.34 40.3-2.88 42.35-2.88L42.35-2.88Q44.72-2.88 46.77-3.5 48.82-4.13 50.62-5.2L50.62-5.2 50.25-1.7Q48.62-0.68 46.47-0.06 44.32 0.55 41.7 0.55ZM49.95-13.63L49.95-10.58 32.6-10.58 32.6-13.63 49.95-13.63ZM76.8-15.63L76.8 0 72.75 0 72.75-15.18Q72.75-17.15 72.21-18.57 71.67-20 70.46-20.79 69.25-21.58 67.15-21.58L67.15-21.58Q65.22-21.58 63.81-20.85 62.4-20.13 61.52-18.89 60.65-17.65 60.3-16.07L60.3-16.07 59.57-18.95 60.45-18.95Q60.85-20.6 61.85-21.96 62.85-23.33 64.53-24.14 66.22-24.95 68.67-24.95L68.67-24.95Q71.57-24.95 73.36-23.85 75.15-22.75 75.97-20.69 76.8-18.63 76.8-15.63L76.8-15.63ZM60.47-18.32L60.47 0 56.42 0 56.42-24.4 60.47-24.4 60.3-18.55 60.47-18.32ZM91.87 0.5L91.87 0.5Q89.04 0.5 87.32-0.35 85.59-1.2 84.82-2.93 84.04-4.65 84.04-7.23L84.04-7.23 84.04-22.63 88.04-22.63 88.04-7.7Q88.04-5.3 89.14-4.16 90.24-3.03 92.84-3.03L92.84-3.03Q94.32-3.03 95.68-3.35 97.04-3.68 98.24-4.28L98.24-4.28 97.87-0.8Q96.69-0.2 95.12 0.15 93.54 0.5 91.87 0.5ZM97.99-24.05L97.62-20.8 80.04-20.8 80.04-24.05 97.99-24.05ZM88.12-31.03L87.94-23.65 84.07-23.65 84.04-30.5 88.12-31.03ZM123.14-15.63L123.14 0 119.09 0 119.09-15.18Q119.09-17.15 118.55-18.57 118.02-20 116.8-20.79 115.59-21.58 113.49-21.58L113.49-21.58Q111.57-21.58 110.17-20.85 108.77-20.13 107.9-18.89 107.04-17.65 106.69-16.07L106.69-16.07 105.79-18.95 106.84-18.95Q107.22-20.6 108.22-21.96 109.22-23.33 110.9-24.14 112.59-24.95 115.02-24.95L115.02-24.95Q117.92-24.95 119.7-23.85 121.49-22.75 122.32-20.69 123.14-18.63 123.14-15.63L123.14-15.63ZM106.82-17.85L106.82 0 102.77 0 102.77-33.13 106.79-33.13 106.79-25.18 106.67-18.18 106.82-17.85ZM139.11 0.63L139.11 0.63Q133.86 0.63 131.15-2.21 128.44-5.05 128.44-10.38L128.44-10.38 128.44-14.1Q128.44-19.4 131.16-22.23 133.89-25.05 139.11-25.05L139.11-25.05Q144.36-25.05 147.08-22.23 149.79-19.4 149.79-14.1L149.79-14.1 149.79-10.38Q149.79-5.05 147.08-2.21 144.36 0.63 139.11 0.63ZM139.11-2.68L139.11-2.68Q142.36-2.68 144.05-4.6 145.74-6.53 145.74-10.15L145.74-10.15 145.74-14.33Q145.74-17.93 144.05-19.84 142.36-21.75 139.11-21.75L139.11-21.75Q135.89-21.75 134.19-19.84 132.49-17.93 132.49-14.33L132.49-14.33 132.49-10.15Q132.49-6.53 134.19-4.6 135.89-2.68 139.11-2.68ZM155.11-8.78L155.11-24.4 159.14-24.4 159.14-9.22Q159.14-7.3 159.67-5.86 160.21-4.42 161.44-3.64 162.66-2.85 164.74-2.85L164.74-2.85Q166.69-2.85 168.09-3.56 169.49-4.28 170.37-5.53 171.26-6.78 171.59-8.35L171.59-8.35 172.31-5.48 171.44-5.48Q171.06-3.83 170.06-2.46 169.06-1.1 167.37-0.29 165.69 0.53 163.21 0.53L163.21 0.53Q160.34 0.53 158.55-0.56 156.76-1.65 155.94-3.74 155.11-5.83 155.11-8.78L155.11-8.78ZM171.41-6.1L171.41-24.4 175.46-24.4 175.46 0 171.41 0 171.59-5.85 171.41-6.1ZM189.68 0.55L189.68 0.55Q186.73 0.55 184.53-0.09 182.33-0.73 180.88-1.48L180.88-1.48 180.51-5.23Q182.33-4.28 184.52-3.58 186.71-2.88 189.48-2.88L189.48-2.88Q192.31-2.88 193.73-3.78 195.16-4.67 195.16-6.45L195.16-6.45 195.16-6.73Q195.16-7.88 194.62-8.63 194.08-9.38 192.68-9.95 191.28-10.53 188.71-11.1L188.71-11.1Q185.63-11.78 183.86-12.69 182.08-13.6 181.32-14.95 180.56-16.3 180.56-18.25L180.56-18.25 180.56-18.48Q180.56-21.68 182.78-23.33 185.01-24.98 189.48-24.98L189.48-24.98Q192.36-24.98 194.47-24.33 196.58-23.68 197.93-22.88L197.93-22.88 198.31-19.45Q196.68-20.4 194.58-21.03 192.48-21.65 189.86-21.65L189.86-21.65Q187.96-21.65 186.78-21.26 185.61-20.88 185.08-20.16 184.56-19.45 184.56-18.45L184.56-18.45 184.56-18.25Q184.56-17.15 185.08-16.39 185.61-15.63 186.97-15.06 188.33-14.5 190.76-13.98L190.76-13.98Q193.88-13.35 195.72-12.48 197.56-11.6 198.36-10.26 199.16-8.93 199.16-6.83L199.16-6.83 199.16-6.4Q199.16-2.95 196.76-1.2 194.36 0.55 189.68 0.55ZM214.31 0.55L214.31 0.55Q208.73 0.55 205.91-2.18 203.08-4.9 203.08-9.98L203.08-9.98 203.08-14.33Q203.08-19.48 205.71-22.26 208.33-25.05 213.38-25.05L213.38-25.05Q216.78-25.05 219.06-23.79 221.33-22.53 222.48-20.2 223.63-17.88 223.63-14.65L223.63-14.65 223.63-13.75Q223.63-12.95 223.57-12.15 223.51-11.35 223.41-10.58L223.41-10.58 219.68-10.58Q219.73-11.78 219.74-12.85 219.76-13.93 219.76-14.83L219.76-14.83Q219.76-17.05 219.04-18.59 218.33-20.13 216.92-20.94 215.51-21.75 213.38-21.75L213.38-21.75Q210.23-21.75 208.66-19.93 207.08-18.1 207.08-14.7L207.08-14.7 207.08-12.38 207.11-11.88 207.11-9.55Q207.11-8.03 207.56-6.8 208.01-5.58 208.97-4.69 209.93-3.8 211.42-3.34 212.91-2.88 214.96-2.88L214.96-2.88Q217.33-2.88 219.38-3.5 221.43-4.13 223.23-5.2L223.23-5.2 222.86-1.7Q221.23-0.68 219.08-0.06 216.93 0.55 214.31 0.55ZM222.56-13.63L222.56-10.58 205.21-10.58 205.21-13.63 222.56-13.63ZM230.43 0.48L230.43 0.48Q229.13 0.48 228.52-0.24 227.9-0.95 227.9-2.25L227.9-2.25 227.9-2.5Q227.9-3.78 228.52-4.48 229.13-5.18 230.43-5.18L230.43-5.18Q231.7-5.18 232.33-4.48 232.95-3.78 232.95-2.5L232.95-2.5 232.95-2.25Q232.95-0.95 232.33-0.24 231.7 0.48 230.43 0.48ZM247.1 0.55L247.1 0.55Q241.85 0.55 239.29-2.29 236.73-5.13 236.73-10.33L236.73-10.33 236.73-14.13Q236.73-19.35 239.3-22.16 241.88-24.98 247.1-24.98L247.1-24.98Q248.65-24.98 249.93-24.69 251.2-24.4 252.21-23.94 253.23-23.48 253.93-22.98L253.93-22.98 254.28-19.45Q253.1-20.35 251.49-20.98 249.88-21.6 247.7-21.6L247.7-21.6Q244.2-21.6 242.49-19.66 240.78-17.73 240.78-14.03L240.78-14.03 240.78-10.43Q240.78-6.8 242.49-4.85 244.2-2.9 247.7-2.9L247.7-2.9Q249.95-2.9 251.59-3.53 253.23-4.15 254.5-5.05L254.5-5.05 254.13-1.48Q253.03-0.73 251.25-0.09 249.48 0.55 247.1 0.55ZM268.62 0.63L268.62 0.63Q263.37 0.63 260.66-2.21 257.95-5.05 257.95-10.38L257.95-10.38 257.95-14.1Q257.95-19.4 260.67-22.23 263.4-25.05 268.62-25.05L268.62-25.05Q273.87-25.05 276.59-22.23 279.3-19.4 279.3-14.1L279.3-14.1 279.3-10.38Q279.3-5.05 276.59-2.21 273.87 0.63 268.62 0.63ZM268.62-2.68L268.62-2.68Q271.87-2.68 273.56-4.6 275.25-6.53 275.25-10.15L275.25-10.15 275.25-14.33Q275.25-17.93 273.56-19.84 271.87-21.75 268.62-21.75L268.62-21.75Q265.4-21.75 263.7-19.84 262-17.93 262-14.33L262-14.33 262-10.15Q262-6.53 263.7-4.6 265.4-2.68 268.62-2.68ZM319.45-15.73L319.45 0 315.4 0 315.4-15.28Q315.4-17.2 314.91-18.61 314.42-20.03 313.31-20.8 312.2-21.58 310.32-21.58L310.32-21.58Q308.55-21.58 307.25-20.85 305.95-20.13 305.15-18.91 304.35-17.7 304.02-16.15L304.02-16.15 303.4-19.03 303.9-19.03Q304.3-20.6 305.25-21.95 306.2-23.3 307.82-24.13 309.45-24.95 311.85-24.95L311.85-24.95Q314.57-24.95 316.23-23.88 317.9-22.8 318.67-20.74 319.45-18.68 319.45-15.73L319.45-15.73ZM288.97-18.3L288.97 0 284.92 0 284.92-24.4 288.97-24.4 288.8-18.55 288.97-18.3ZM304.2-15.85L304.2 0 300.17 0 300.17-15.28Q300.17-17.2 299.68-18.61 299.2-20.03 298.1-20.8 297-21.58 295.12-21.58L295.12-21.58Q293.32-21.58 292.02-20.85 290.72-20.13 289.92-18.89 289.12-17.65 288.8-16.07L288.8-16.07 288.05-18.95 288.95-18.95Q289.32-20.6 290.25-21.96 291.17-23.33 292.76-24.14 294.35-24.95 296.62-24.95L296.62-24.95Q300-24.95 301.76-23.2 303.52-21.45 303.97-18.1L303.97-18.1Q304.1-17.6 304.15-17.01 304.2-16.43 304.2-15.85L304.2-15.85Z" opacity="1" transform="matrix(1,0,0,1,0,0)" fill="#091627" class="wordmark-text-0" data-fill-palette-color="primary" id="text-0"></path></svg></g></svg></g></svg></g></svg></g><g><svg viewBox="0 0 152.98054608805828 152.98054608805828" height="152.98054608805828" width="152.98054608805828"><g><svg viewBox="0 0 152.98054608805828 152.98054608805828" height="152.98054608805828" width="152.98054608805828"><g transform="matrix(1,0,0,1,41.651867691484696,40.43241253453341)"><svg viewBox="0 0 69.67681070508888 72.11572101899145" height="72.11572101899145" width="69.67681070508888"><g><svg xmlns="http://www.w3.org/2000/svg" xmlns:xlink="http://www.w3.org/1999/xlink" version="1.1" x="0" y="0" viewBox="6.832 5.322 86.33500000000001 89.357" enable-background="new 0 0 100 100" xml:space="preserve" height="72.11572101899145" width="69.67681070508888" class="icon-dxe-0" data-fill-palette-color="accent" id="dxe-0"><g fill="#eac452" data-fill-palette-color="accent"><path d="M6.932 43.395C7.061 43.299 7.193 43.201 7.354 43.068L42.434 18.19C45.942 15.407 54.145 15.407 57.654 18.19L92.733 42.069C92.871 42.183 92.987 42.274 93.099 42.364 93.14 42.758 93.165 43.158 93.165 43.567L93.167 42.417H93.165V37.076C93.165 33.598 91.686 30.639 88.731 28.205L57.653 7.326C56.231 6.198 54.034 5.535 51.693 5.322H48.395C46.055 5.535 43.857 6.198 42.434 7.326L11.355 28.205C8.401 30.638 6.922 33.597 6.922 37.076L6.832 43.472 6.922 43.576C6.922 43.515 6.931 43.456 6.932 43.395" fill="#eac452" data-fill-palette-color="accent"></path><path d="M54.633 67.592H45.434C40.245 67.592 37.65 70.188 37.65 75.258V94.678H62.298V75.258C62.299 70.188 59.703 67.592 54.633 67.592" fill="#eac452" data-fill-palette-color="accent"></path><path d="M92.731 48.568L57.652 24.689C54.142 21.906 45.94 21.906 42.432 24.689L7.352 49.568A10 10 0 0 1 6.92 49.902V85.245C6.92 90.434 11.201 94.679 16.433 94.679H32.398V72.756C32.398 65.526 36.099 61.824 43.498 61.824H56.614C63.845 61.824 67.547 65.525 67.547 72.756V94.678H83.652C88.884 94.678 93.166 90.434 93.166 85.244V48.916A19 19 0 0 1 92.731 48.568" fill="#eac452" data-fill-palette-color="accent"></path></g></svg></g></svg></g><g id="text-0"><path d="M12.517 48.961l2.721 0.467-0.525 1.579-2.526-0.476c-0.477-0.087-0.907-0.113-1.289-0.077-0.383 0.037-0.721 0.174-1.014 0.412-0.295 0.244-0.535 0.645-0.721 1.203v0l-1.063 3.197-1.213-0.404 1.127-3.421c0.267-0.802 0.259-1.443-0.024-1.921-0.276-0.477-0.758-0.829-1.444-1.058v0l-0.27-0.09c-0.68-0.226-1.265-0.225-1.755 0.005-0.488 0.223-0.868 0.745-1.141 1.566v0l-1.14 3.427-1.261-0.419 1.207-3.63c0.423-1.271 1.008-2.099 1.757-2.484 0.744-0.394 1.607-0.428 2.589-0.101v0l0.308 0.102c0.77 0.256 1.338 0.648 1.704 1.176 0.368 0.522 0.466 1.224 0.294 2.108v0l0.183 0.061-0.449 0.578c0.273-0.672 0.597-1.152 0.971-1.441 0.374-0.289 0.804-0.445 1.289-0.47 0.488-0.03 1.049 0.007 1.685 0.111zM8.032 54.73l4.901 1.63-0.503 1.511-11.784-3.919 0.5-1.502 6.296 2.094z" fill="#eac452" data-fill-palette-color="accent"></path><path d="M20.227 40.877v0c-0.743 1.242-1.604 1.996-2.583 2.261-0.985 0.262-2.04 0.056-3.165-0.617v0l-1.454-0.87c-1.143-0.684-1.85-1.505-2.121-2.463-0.274-0.952-0.074-1.991 0.6-3.117v0c0.452-0.755 0.971-1.299 1.558-1.634 0.581-0.338 1.206-0.48 1.875-0.427 0.669 0.054 1.364 0.296 2.083 0.727v0l0.296 0.177c0.18 0.108 0.356 0.221 0.53 0.34 0.164 0.122 0.327 0.243 0.491 0.365v0l-0.745 1.245c-0.26-0.171-0.509-0.328-0.747-0.471-0.234-0.148-0.453-0.283-0.657-0.404v0c-0.493-0.295-0.958-0.467-1.394-0.516-0.44-0.042-0.843 0.039-1.211 0.246-0.367 0.206-0.692 0.544-0.973 1.013v0c-0.42 0.702-0.531 1.349-0.333 1.941 0.194 0.597 0.669 1.121 1.423 1.573v0l0.775 0.463 0.17 0.091 0.775 0.463c0.342 0.205 0.68 0.34 1.012 0.405 0.33 0.055 0.657 0.035 0.983-0.062 0.322-0.091 0.635-0.27 0.937-0.539 0.302-0.268 0.591-0.632 0.865-1.09v0c0.316-0.528 0.54-1.06 0.672-1.597 0.135-0.542 0.203-1.084 0.205-1.627v0l1.093 0.82c0.008 0.501-0.061 1.031-0.207 1.591-0.151 0.556-0.402 1.127-0.753 1.713zM17.146 35.297l1.019 0.609-3.465 5.79-1.018-0.61z" fill="#eac452" data-fill-palette-color="accent"></path><path d="M26.725 22.879l4.463 4.125-1.068 1.155-4.328-4.001c-0.377-0.349-0.751-0.598-1.121-0.746-0.36-0.149-0.722-0.175-1.087-0.08-0.36 0.091-0.726 0.337-1.098 0.74v0c-0.34 0.368-0.567 0.747-0.68 1.14-0.109 0.397-0.12 0.787-0.033 1.171 0.077 0.385 0.235 0.747 0.473 1.087v0l-1.012-0.549 0.234-0.253c-0.244-0.364-0.408-0.759-0.492-1.187-0.079-0.432-0.051-0.881 0.084-1.346 0.144-0.465 0.433-0.931 0.864-1.398v0c0.51-0.551 1.025-0.899 1.546-1.044 0.53-0.145 1.063-0.114 1.597 0.095 0.539 0.204 1.092 0.567 1.658 1.091zM21.654 26.826l5.229 4.835-1.074 1.162-6.966-6.44 1.075-1.162 1.62 1.595z" fill="#eac452" data-fill-palette-color="accent"></path><path d="M39.202 21.108v0c-0.597 0.421-1.14 0.672-1.63 0.752-0.493 0.075-0.952-0.012-1.374-0.26-0.418-0.252-0.819-0.651-1.206-1.198v0l-3.449-4.893 1.269-0.894 3.344 4.743c0.359 0.509 0.74 0.803 1.143 0.882 0.4 0.074 0.876-0.084 1.429-0.474v0c0.31-0.218 0.585-0.462 0.825-0.731 0.242-0.278 0.446-0.571 0.611-0.877v0l0.653 1.191c-0.159 0.303-0.377 0.609-0.654 0.92-0.281 0.306-0.601 0.585-0.961 0.839zM35.655 11.94l0.609 1.11-5.589 3.94-0.725-1.028zM30.96 11.936l1.59 2.379-1.227 0.865-1.54-2.166z" fill="#eac452" data-fill-palette-color="accent"></path><path d="M51.028 7.816l2.53 5.526-1.429 0.654-2.455-5.359c-0.214-0.467-0.463-0.841-0.747-1.12-0.275-0.276-0.599-0.44-0.973-0.491-0.367-0.055-0.8 0.032-1.298 0.259v0c-0.455 0.208-0.808 0.47-1.057 0.786-0.253 0.324-0.414 0.68-0.482 1.068-0.071 0.382-0.061 0.776 0.028 1.182v0l-0.788-0.867 0.369-0.169c-0.085-0.43-0.084-0.858 0.003-1.285 0.087-0.427 0.286-0.83 0.596-1.21 0.312-0.374 0.755-0.692 1.326-0.953v0c0.683-0.313 1.292-0.436 1.829-0.369 0.545 0.07 1.025 0.304 1.437 0.703 0.419 0.396 0.789 0.944 1.111 1.645zM44.904 9.672l2.889 6.31-1.439 0.659-5.361-11.706 1.43-0.655 1.289 2.814 1.086 2.493z" fill="#eac452" data-fill-palette-color="accent"></path><path d="M63.547 11.01v0c-1.33 0.283-2.415 0.138-3.257-0.437-0.84-0.568-1.404-1.526-1.692-2.876v0l-0.302-1.419c-0.286-1.343-0.162-2.445 0.374-3.306 0.541-0.869 1.473-1.445 2.796-1.726v0c1.33-0.283 2.415-0.138 3.257 0.436 0.84 0.568 1.404 1.523 1.689 2.866v0l0.303 1.419c0.288 1.349 0.164 2.455-0.372 3.316-0.534 0.868-1.466 1.443-2.796 1.727zM63.28 9.759v0c0.82-0.175 1.393-0.553 1.719-1.134 0.326-0.581 0.39-1.332 0.195-2.251v0l-0.339-1.587c-0.195-0.913-0.558-1.565-1.091-1.957-0.533-0.391-1.21-0.499-2.03-0.324v0c-0.82 0.175-1.394 0.55-1.721 1.124-0.327 0.575-0.393 1.318-0.198 2.231v0l0.338 1.588c0.196 0.919 0.561 1.578 1.096 1.976 0.534 0.398 1.212 0.509 2.031 0.334z" fill="#eac452" data-fill-palette-color="accent"></path><path d="M73.714 6.077l0-6.077 1.563 0-0.001 5.905c0 0.494 0.071 0.927 0.213 1.299 0.135 0.379 0.362 0.67 0.68 0.872 0.318 0.203 0.747 0.304 1.288 0.305v0c0.501 0 0.933-0.091 1.299-0.274 0.365-0.189 0.663-0.446 0.893-0.771 0.23-0.325 0.386-0.69 0.467-1.096v0l0.284 1.116-0.345 0c-0.095 0.426-0.271 0.818-0.528 1.177-0.264 0.352-0.612 0.632-1.045 0.842-0.44 0.21-0.981 0.314-1.623 0.314v0c-0.744 0-1.346-0.142-1.806-0.426-0.467-0.277-0.805-0.687-1.015-1.228-0.216-0.541-0.325-1.194-0.324-1.958zM80.045 7.113l0-7.112 1.573 0-0.001 9.486-1.573 0 0.072-2.273z" fill="#eac452" data-fill-palette-color="accent"></path><path d="M91.06 11.297v0c-0.747-0.161-1.381-0.38-1.903-0.658-0.52-0.285-0.945-0.56-1.276-0.825v0l0.169-1.458c0.412 0.338 0.876 0.655 1.393 0.954 0.517 0.298 1.126 0.522 1.827 0.673v0c0.714 0.154 1.278 0.154 1.691 0.001 0.405-0.148 0.657-0.447 0.753-0.897v0l0.024-0.109c0.063-0.291 0.048-0.543-0.045-0.757-0.098-0.222-0.309-0.444-0.635-0.666-0.319-0.221-0.79-0.474-1.414-0.76v0c-0.743-0.34-1.315-0.674-1.714-1.002-0.4-0.328-0.659-0.685-0.777-1.07-0.119-0.378-0.125-0.816-0.019-1.312v0l0.02-0.089c0.174-0.807 0.586-1.358 1.237-1.654 0.653-0.302 1.548-0.331 2.686-0.086v0c0.727 0.156 1.341 0.375 1.841 0.655 0.5 0.281 0.897 0.56 1.19 0.837v0l-0.131 1.332c-0.359-0.326-0.789-0.626-1.29-0.9-0.495-0.273-1.076-0.481-1.744-0.625v0c-0.483-0.104-0.884-0.138-1.203-0.103-0.317 0.029-0.562 0.121-0.734 0.278-0.171 0.15-0.283 0.351-0.337 0.602v0l-0.017 0.08c-0.06 0.278-0.044 0.527 0.047 0.746 0.091 0.22 0.296 0.441 0.615 0.662 0.313 0.219 0.762 0.461 1.349 0.726v0c0.753 0.328 1.34 0.652 1.762 0.971 0.414 0.324 0.688 0.677 0.821 1.058 0.126 0.38 0.131 0.838 0.016 1.374v0l-0.034 0.158c-0.188 0.873-0.634 1.465-1.338 1.778-0.697 0.314-1.641 0.342-2.83 0.086z" fill="#eac452" data-fill-palette-color="accent"></path><path d="M104.004 15.663v0c-1.328-0.575-2.188-1.331-2.579-2.266-0.388-0.942-0.322-2.015 0.2-3.219v0l0.673-1.555c0.529-1.223 1.251-2.031 2.166-2.423 0.908-0.395 1.964-0.332 3.169 0.189v0c0.807 0.349 1.415 0.793 1.823 1.331 0.411 0.532 0.633 1.133 0.667 1.803 0.034 0.671-0.116 1.391-0.449 2.161v0l-0.137 0.316c-0.083 0.192-0.173 0.382-0.268 0.57-0.099 0.178-0.198 0.356-0.298 0.534v0l-1.332-0.576c0.136-0.28 0.259-0.547 0.37-0.802 0.116-0.252 0.222-0.486 0.315-0.704v0c0.228-0.528 0.338-1.011 0.329-1.45-0.015-0.441-0.149-0.831-0.4-1.168-0.252-0.338-0.629-0.615-1.132-0.833v0c-0.751-0.325-1.407-0.351-1.968-0.078-0.567 0.271-1.025 0.809-1.374 1.617v0l-0.358 0.828-0.068 0.181-0.358 0.829c-0.159 0.366-0.248 0.718-0.269 1.055-0.012 0.334 0.051 0.656 0.189 0.967 0.132 0.308 0.351 0.594 0.656 0.859 0.305 0.265 0.703 0.504 1.194 0.716v0c0.565 0.245 1.122 0.397 1.67 0.457 0.555 0.063 1.101 0.06 1.64-0.008v0l-0.67 1.191c-0.496 0.073-1.03 0.073-1.604 0.002-0.571-0.078-1.17-0.252-1.797-0.524zM109.135 11.882l-0.471 1.089-6.192-2.681 0.472-1.089z" fill="#eac452" data-fill-palette-color="accent"></path><path d="M113.276 20.667v0c-0.284-0.183-0.442-0.394-0.474-0.632-0.037-0.241 0.036-0.504 0.219-0.788v0l0.055-0.085c0.18-0.278 0.385-0.448 0.617-0.508 0.23-0.069 0.487-0.012 0.771 0.172v0c0.278 0.18 0.436 0.39 0.474 0.632 0.041 0.236-0.028 0.493-0.208 0.771v0l-0.055 0.085c-0.183 0.284-0.393 0.459-0.628 0.525-0.235 0.065-0.492 0.008-0.771-0.172z" fill="#eac452" data-fill-palette-color="accent"></path><path d="M121.7 27.433v0c-1.016-0.904-1.526-1.851-1.532-2.843-0.01-0.986 0.433-1.982 1.327-2.988v0l0.985-1.106c0.899-1.011 1.841-1.567 2.827-1.668 0.981-0.105 1.977 0.292 2.987 1.191v0c0.303 0.27 0.554 0.543 0.752 0.818 0.198 0.276 0.353 0.545 0.464 0.807 0.116 0.266 0.2 0.508 0.251 0.725v0l-0.812 1.111c-0.07-0.379-0.208-0.764-0.412-1.154-0.205-0.4-0.52-0.789-0.945-1.167v0c-0.677-0.602-1.346-0.863-2.008-0.78-0.666 0.077-1.318 0.475-1.956 1.192v0l-0.931 1.046c-0.625 0.702-0.937 1.389-0.936 2.06-0.009 0.671 0.326 1.308 1.003 1.91v0c0.44 0.391 0.87 0.665 1.291 0.823 0.426 0.162 0.84 0.267 1.241 0.316v0l-1.03 0.944c-0.343-0.052-0.743-0.167-1.199-0.347-0.452-0.184-0.907-0.481-1.367-0.89z" fill="#eac452" data-fill-palette-color="accent"></path><path d="M129.927 36.792v0c-0.819-1.085-1.147-2.13-0.982-3.136 0.159-1.002 0.789-1.918 1.89-2.75v0l1.157-0.874c1.096-0.828 2.147-1.181 3.154-1.06 1.016 0.122 1.932 0.723 2.747 1.802v0c0.819 1.085 1.147 2.13 0.983 3.136-0.159 1.002-0.786 1.916-1.882 2.744v0l-1.157 0.874c-1.101 0.832-2.155 1.187-3.162 1.066-1.012-0.117-1.928-0.718-2.748-1.802zM130.947 36.021v0c0.506 0.669 1.09 1.028 1.755 1.078 0.664 0.049 1.372-0.21 2.122-0.776v0l1.295-0.979c0.745-0.563 1.182-1.168 1.311-1.816 0.129-0.648-0.059-1.307-0.565-1.977v0c-0.506-0.669-1.088-1.03-1.746-1.084-0.659-0.053-1.361 0.201-2.106 0.765v0l-1.295 0.978c-0.75 0.567-1.192 1.176-1.327 1.829-0.134 0.652 0.051 1.313 0.556 1.982z" fill="#eac452" data-fill-palette-color="accent"></path><path d="M146.373 55.316l-5.629 2.369-0.61-1.45 5.471-2.302c0.461-0.194 0.835-0.421 1.122-0.681 0.287-0.26 0.469-0.56 0.545-0.901 0.068-0.344 0.008-0.741-0.181-1.19v0c-0.178-0.424-0.416-0.753-0.713-0.987-0.306-0.238-0.646-0.392-1.02-0.463-0.368-0.073-0.752-0.069-1.151 0.011v0l0.934-0.657 0.075 0.178c0.416-0.058 0.833-0.042 1.252 0.045 0.419 0.088 0.807 0.288 1.166 0.599 0.362 0.303 0.664 0.741 0.905 1.315v0c0.273 0.648 0.365 1.226 0.278 1.732-0.094 0.509-0.349 0.958-0.766 1.346-0.414 0.394-0.973 0.74-1.678 1.036zM142.707 44.013l-6.555 2.758-0.614-1.459 8.744-3.679 0.614 1.459-2.123 0.816zM144.122 49.835l-5.676 2.388-0.606-1.44 5.471-2.302c0.461-0.194 0.835-0.421 1.122-0.681 0.287-0.26 0.469-0.56 0.545-0.901 0.071-0.338 0.011-0.731-0.177-1.18v0c-0.181-0.43-0.421-0.766-0.721-1.007-0.303-0.232-0.645-0.382-1.025-0.449-0.374-0.07-0.764-0.064-1.17 0.019v0l0.915-0.704 0.137 0.327c0.429-0.078 0.852-0.076 1.268 0.006 0.419 0.088 0.808 0.28 1.168 0.577 0.351 0.293 0.641 0.713 0.872 1.262v0c0.338 0.804 0.387 1.503 0.145 2.096-0.239 0.6-0.739 1.122-1.499 1.566v0c-0.105 0.081-0.224 0.157-0.356 0.227-0.138 0.073-0.276 0.138-0.413 0.196z" fill="#eac452" data-fill-palette-color="accent"></path><path d="M8.768 105.28l-2.549 1.304-0.545-1.626 2.385-1.185c0.453-0.223 0.827-0.47 1.122-0.739 0.295-0.27 0.489-0.595 0.582-0.977 0.087-0.379 0.034-0.857-0.159-1.433v0l-1.103-3.323 1.251-0.419 1.199 3.547c0.279 0.834 0.687 1.357 1.222 1.57 0.531 0.222 1.149 0.214 1.854-0.022v0l0.289-0.097c0.699-0.234 1.18-0.599 1.442-1.093 0.264-0.488 0.255-1.155-0.029-2.002v0l-1.193-3.559 1.308-0.439 1.261 3.762c0.441 1.315 0.472 2.367 0.095 3.156-0.377 0.79-1.073 1.355-2.086 1.695v0l-0.318 0.106c-0.795 0.267-1.51 0.295-2.143 0.087-0.633-0.209-1.151-0.731-1.552-1.567v0l-0.192 0.065 0.015-0.754c0.185 0.723 0.214 1.319 0.086 1.79-0.134 0.473-0.392 0.873-0.775 1.201-0.389 0.33-0.878 0.647-1.467 0.952zM8.893 97.705l-5.079 1.702-0.525-1.568 12.207-4.091 0.523 1.559-6.523 2.185z" fill="#eac452" data-fill-palette-color="accent"></path><path d="M11.689 117.094v0c-0.771-1.281-1.038-2.434-0.802-3.46 0.238-1.035 0.939-1.903 2.104-2.603v0l1.504-0.905c1.188-0.715 2.284-0.96 3.287-0.735 1.006 0.216 1.858 0.903 2.555 2.063v0c0.471 0.782 0.72 1.525 0.748 2.226 0.024 0.696-0.153 1.339-0.532 1.93-0.373 0.587-0.93 1.104-1.672 1.551v0l-0.313 0.188c-0.185 0.112-0.373 0.213-0.564 0.303-0.192 0.1-0.385 0.192-0.579 0.278v0l-0.774-1.287c0.285-0.156 0.549-0.307 0.793-0.453 0.253-0.144 0.483-0.279 0.692-0.405v0c0.51-0.307 0.891-0.651 1.144-1.031 0.256-0.375 0.382-0.782 0.378-1.222-0.01-0.436-0.163-0.901-0.459-1.393v0c-0.436-0.724-0.973-1.139-1.613-1.244-0.637-0.114-1.347 0.064-2.129 0.535v0l-0.8 0.481-0.169 0.113-0.808 0.487c-0.348 0.209-0.632 0.451-0.854 0.726-0.221 0.275-0.367 0.584-0.437 0.926-0.07 0.342-0.055 0.716 0.047 1.121 0.099 0.414 0.29 0.856 0.572 1.325v0c0.328 0.545 0.707 1.011 1.138 1.399 0.427 0.382 0.891 0.707 1.391 0.975v0l-1.287 0.596c-0.464-0.234-0.917-0.553-1.358-0.958-0.439-0.415-0.84-0.924-1.203-1.527zM18.299 117.001l-1.051 0.633-3.604-5.99 1.052-0.633z" fill="#eac452" data-fill-palette-color="accent"></path><path d="M28.952 128.101l-4.619 4.285-1.11-1.197 4.484-4.161c0.387-0.359 0.673-0.721 0.859-1.088 0.181-0.362 0.241-0.735 0.179-1.12-0.072-0.386-0.298-0.784-0.68-1.196v0c-0.35-0.377-0.727-0.64-1.134-0.789-0.401-0.144-0.802-0.188-1.201-0.131-0.404 0.052-0.794 0.188-1.171 0.408v0l0.655-1.009 0.242 0.26c0.396-0.22 0.82-0.355 1.271-0.404 0.447-0.055 0.907 0.008 1.379 0.188 0.467 0.185 0.926 0.52 1.376 1.006v0c0.529 0.57 0.848 1.133 0.956 1.687 0.113 0.55 0.043 1.095-0.212 1.636-0.259 0.536-0.684 1.078-1.274 1.625zM25.276 122.543l-5.414 5.024-1.111-1.198 7.207-6.686 1.111 1.197-1.774 1.549z" fill="#eac452" data-fill-palette-color="accent"></path><path d="M33.552 139.804v0c-0.625-0.44-1.06-0.886-1.304-1.338-0.25-0.457-0.325-0.931-0.226-1.424 0.097-0.502 0.344-1.036 0.74-1.601v0l3.571-5.079 1.319 0.927-3.459 4.922c-0.369 0.526-0.525 0.999-0.466 1.422 0.068 0.42 0.388 0.831 0.958 1.231v0c0.326 0.229 0.664 0.413 1.013 0.551 0.349 0.138 0.704 0.234 1.063 0.288v0l-0.93 1.058c-0.353-0.05-0.729-0.157-1.126-0.321-0.403-0.168-0.787-0.38-1.153-0.636zM41.258 133.129l-0.877 0.983-5.794-4.072 0.753-1.071zM39.62 128.543l-1.767 2.391-1.279-0.899 1.579-2.263z" fill="#eac452" data-fill-palette-color="accent"></path><path d="M52.355 142.394l-2.622 5.729-1.485-0.68 2.546-5.562c0.22-0.48 0.345-0.924 0.376-1.334 0.028-0.404-0.06-0.771-0.265-1.104-0.214-0.329-0.576-0.61-1.087-0.843v0c-0.467-0.214-0.914-0.311-1.34-0.29-0.426 0.021-0.813 0.134-1.159 0.34-0.347 0.206-0.652 0.483-0.916 0.83v0l0.153-1.213 0.388 0.178c0.275-0.358 0.612-0.646 1.01-0.866 0.392-0.222 0.84-0.341 1.345-0.355 0.502-0.008 1.051 0.124 1.648 0.397v0c0.707 0.324 1.217 0.721 1.53 1.192 0.316 0.464 0.46 0.995 0.432 1.592-0.034 0.594-0.218 1.258-0.554 1.989zM46.749 138.846l-2.994 6.541-1.485-0.68 5.556-12.14 1.476 0.676-1.334 2.915-1.22 2.543z" fill="#eac452" data-fill-palette-color="accent"></path><path d="M61.485 151.529v0c-1.376-0.293-2.342-0.889-2.898-1.789-0.555-0.9-0.684-2.047-0.387-3.443v0l0.313-1.469c0.297-1.396 0.885-2.388 1.764-2.975 0.872-0.589 1.993-0.738 3.362-0.446v0c1.383 0.294 2.352 0.888 2.909 1.781 0.55 0.892 0.677 2.035 0.38 3.431v0l-0.313 1.469c-0.297 1.396-0.879 2.392-1.746 2.989-0.874 0.595-2.002 0.746-3.384 0.452zM61.761 150.229v0c0.853 0.182 1.556 0.065 2.108-0.35 0.55-0.408 0.927-1.089 1.129-2.042v0l0.351-1.647c0.201-0.946 0.134-1.718-0.202-2.315-0.336-0.597-0.931-0.987-1.785-1.168v0c-0.847-0.18-1.545-0.066-2.095 0.342-0.557 0.407-0.936 1.084-1.138 2.03v0l-0.35 1.647c-0.203 0.953-0.133 1.728 0.21 2.327 0.335 0.604 0.926 0.996 1.772 1.176z" fill="#eac452" data-fill-palette-color="accent"></path><path d="M73.609 149.227l0-6.29 1.623 0 0.001 6.117c0 0.514 0.071 0.964 0.213 1.35 0.149 0.386 0.386 0.686 0.71 0.903 0.331 0.21 0.774 0.314 1.329 0.314v0c0.528 0 0.977-0.095 1.35-0.284 0.379-0.196 0.686-0.46 0.923-0.792 0.243-0.338 0.409-0.72 0.497-1.146v0l0.284 1.166-0.345 0c-0.101 0.44-0.287 0.842-0.558 1.208-0.271 0.365-0.632 0.66-1.085 0.883-0.453 0.216-1.011 0.325-1.674 0.325v0c-0.771 0-1.397-0.145-1.877-0.437-0.48-0.298-0.832-0.724-1.056-1.278-0.223-0.561-0.335-1.241-0.335-2.039zM80.184 150.312l-0.001-7.376 1.623 0 0.001 9.831-1.623 0 0.071-2.354z" fill="#eac452" data-fill-palette-color="accent"></path><path d="M93.191 151.167v0c-0.774 0.166-1.469 0.229-2.087 0.189-0.612-0.048-1.131-0.13-1.558-0.247v0l-0.456-1.448c0.53 0.149 1.103 0.254 1.718 0.316 0.615 0.062 1.286 0.014 2.014-0.142v0c0.741-0.159 1.274-0.398 1.599-0.717 0.319-0.318 0.429-0.708 0.33-1.171v0l-0.024-0.109c-0.065-0.304-0.189-0.541-0.37-0.709-0.18-0.162-0.472-0.279-0.874-0.352-0.403-0.073-0.958-0.112-1.666-0.12v0c-0.845-0.005-1.525-0.077-2.039-0.215-0.521-0.137-0.919-0.363-1.193-0.678-0.28-0.306-0.476-0.718-0.587-1.233v0l-0.019-0.089c-0.18-0.84-0.023-1.538 0.474-2.095 0.488-0.561 1.321-0.969 2.497-1.221v0c0.754-0.162 1.427-0.217 2.02-0.164 0.592 0.053 1.089 0.143 1.49 0.271v0l0.429 1.319c-0.476-0.154-1.006-0.254-1.59-0.302-0.591-0.046-1.23 0.005-1.918 0.153v0c-0.503 0.108-0.895 0.244-1.179 0.409-0.288 0.173-0.482 0.366-0.58 0.581-0.099 0.215-0.12 0.455-0.064 0.72v0l0.017 0.079c0.063 0.291 0.185 0.521 0.366 0.689 0.181 0.169 0.467 0.291 0.857 0.366 0.388 0.069 0.918 0.104 1.59 0.105v0c0.856-0.011 1.55 0.048 2.082 0.175 0.531 0.121 0.937 0.335 1.217 0.641 0.288 0.312 0.491 0.742 0.609 1.291v0l0.036 0.169c0.195 0.906 0.027 1.655-0.503 2.246-0.529 0.598-1.408 1.029-2.638 1.293z" fill="#eac452" data-fill-palette-color="accent"></path><path d="M107.979 146.212v0c-1.372 0.593-2.551 0.704-3.536 0.333-0.994-0.374-1.76-1.185-2.299-2.433v0l-0.696-1.612c-0.55-1.273-0.646-2.392-0.289-3.356 0.348-0.968 1.143-1.72 2.385-2.256v0c0.838-0.362 1.607-0.51 2.307-0.444 0.693 0.069 1.307 0.331 1.841 0.785 0.532 0.448 0.97 1.069 1.314 1.865v0l0.144 0.335c0.086 0.199 0.161 0.398 0.226 0.599 0.073 0.204 0.139 0.408 0.197 0.611v0l-1.378 0.595c-0.116-0.303-0.231-0.586-0.344-0.846-0.109-0.27-0.212-0.516-0.308-0.74v0c-0.236-0.546-0.526-0.97-0.869-1.272-0.337-0.304-0.724-0.483-1.161-0.537-0.434-0.049-0.914 0.041-1.442 0.269v0c-0.776 0.335-1.259 0.812-1.448 1.432-0.198 0.616-0.116 1.343 0.246 2.181v0l0.37 0.857 0.089 0.182 0.374 0.867c0.161 0.373 0.363 0.687 0.606 0.943 0.243 0.256 0.53 0.442 0.86 0.557 0.33 0.115 0.702 0.15 1.117 0.103 0.424-0.043 0.887-0.173 1.389-0.39v0c0.584-0.252 1.097-0.566 1.539-0.94 0.436-0.372 0.82-0.789 1.152-1.249v0l0.419 1.355c-0.294 0.429-0.671 0.835-1.132 1.218-0.47 0.38-1.027 0.709-1.673 0.988zM108.77 139.648l0.487 1.127-6.418 2.771-0.487-1.127z" fill="#eac452" data-fill-palette-color="accent"></path><path d="M118.55 140.477v0c-0.296 0.19-0.564 0.249-0.802 0.177-0.248-0.074-0.465-0.256-0.652-0.547v0l-0.054-0.085c-0.186-0.29-0.259-0.561-0.219-0.812 0.034-0.247 0.2-0.465 0.495-0.655v0c0.285-0.183 0.549-0.24 0.794-0.172 0.245 0.068 0.46 0.247 0.646 0.538v0l0.055 0.086c0.186 0.29 0.261 0.564 0.225 0.82-0.04 0.251-0.203 0.467-0.488 0.65z" fill="#eac452" data-fill-palette-color="accent"></path><path d="M128.139 132.955v0c-1.056 0.929-2.096 1.335-3.119 1.217-1.023-0.118-1.994-0.7-2.915-1.747v0l-1.012-1.15c-0.929-1.056-1.38-2.096-1.353-3.12 0.018-1.024 0.552-1.999 1.603-2.924v0c0.315-0.277 0.626-0.501 0.935-0.674 0.308-0.162 0.603-0.287 0.887-0.374 0.293-0.087 0.551-0.142 0.772-0.166v0l1.045 0.972c-0.39 0.028-0.803 0.121-1.24 0.28-0.437 0.159-0.876 0.433-1.318 0.822v0c-0.706 0.621-1.059 1.279-1.061 1.973-0.001 0.695 0.326 1.415 0.984 2.162v0l0.958 1.09c0.643 0.731 1.31 1.141 1.999 1.228 0.694 0.092 1.394-0.172 2.099-0.793v0c0.457-0.402 0.795-0.812 1.014-1.23 0.218-0.417 0.374-0.829 0.467-1.235v0l0.837 1.182c-0.084 0.344-0.249 0.741-0.493 1.191-0.244 0.44-0.607 0.872-1.089 1.296z" fill="#eac452" data-fill-palette-color="accent"></path><path d="M137.756 122.289v0c-0.855 1.117-1.808 1.734-2.859 1.849-1.051 0.116-2.143-0.26-3.276-1.127v0l-1.193-0.913c-1.133-0.867-1.777-1.824-1.93-2.87-0.158-1.04 0.189-2.117 1.04-3.228v0c0.859-1.123 1.811-1.744 2.857-1.864 1.041-0.114 2.129 0.262 3.262 1.13v0l1.192 0.912c1.133 0.867 1.784 1.821 1.951 2.86 0.163 1.045-0.185 2.128-1.044 3.251zM136.7 121.481v0c0.53-0.693 0.726-1.378 0.588-2.054-0.133-0.672-0.586-1.304-1.359-1.896v0l-1.337-1.024c-0.768-0.588-1.494-0.858-2.178-0.81-0.684 0.047-1.291 0.418-1.821 1.111v0c-0.526 0.688-0.723 1.367-0.59 2.039 0.129 0.678 0.577 1.31 1.345 1.899v0l1.338 1.023c0.773 0.592 1.504 0.861 2.192 0.809 0.689-0.043 1.297-0.409 1.822-1.097z" fill="#eac452" data-fill-palette-color="accent"></path><path d="M143.792 96.276l5.832 2.489-0.641 1.503-5.664-2.418c-0.473-0.202-0.909-0.318-1.308-0.349-0.399-0.031-0.753 0.05-1.062 0.242-0.312 0.198-0.567 0.527-0.764 0.986v0c-0.189 0.442-0.26 0.86-0.215 1.254 0.042 0.4 0.17 0.764 0.384 1.091 0.216 0.32 0.5 0.603 0.851 0.849v0l-1.173-0.225 0.08-0.187c-0.343-0.264-0.634-0.583-0.871-0.956-0.229-0.377-0.359-0.812-0.392-1.304-0.035-0.486 0.073-1.024 0.325-1.615v0c0.289-0.678 0.656-1.165 1.098-1.462 0.437-0.299 0.951-0.436 1.544-0.411 0.59 0.031 1.249 0.202 1.976 0.513zM138.02 107.16l6.784 2.896-0.641 1.502-9.042-3.86 0.641-1.502 2.137 0.989zM141.336 101.901l5.878 2.51-0.637 1.493-5.664-2.418c-0.473-0.202-0.91-0.315-1.312-0.34-0.399-0.031-0.753 0.05-1.062 0.242-0.307 0.185-0.56 0.511-0.76 0.977v0c-0.189 0.442-0.262 0.863-0.219 1.264 0.042 0.4 0.175 0.762 0.397 1.085 0.22 0.329 0.508 0.618 0.866 0.866v0l-1.193-0.178 0.144-0.336c-0.364-0.266-0.666-0.586-0.903-0.96-0.24-0.367-0.379-0.791-0.418-1.27-0.032-0.477 0.073-0.998 0.315-1.564v0c0.356-0.834 0.844-1.375 1.466-1.625 0.615-0.252 1.36-0.258 2.235-0.016v0c0.138 0.022 0.281 0.057 0.429 0.106 0.155 0.051 0.3 0.106 0.438 0.164z" fill="#eac452" data-fill-palette-color="accent"></path><path d="M0.176 76.302c0-2.716 2.202-4.918 4.918-4.918 2.716 0 4.918 2.202 4.918 4.918 0 2.716-2.202 4.918-4.918 4.919-2.716 0-4.918-2.202-4.918-4.919z" fill="#eac452" data-fill-palette-color="accent"></path><path d="M142.969 76.302c0-2.716 2.202-4.918 4.918-4.918 2.716 0 4.918 2.202 4.918 4.918 0 2.716-2.202 4.918-4.918 4.919-2.716 0-4.918-2.202-4.918-4.919z" fill="#eac452" data-fill-palette-color="accent"></path></g><g id="text-1"></g></svg></g></svg></g></svg></g><defs></defs></svg><rect width="395.52" height="105.51271912891852" fill="none" stroke="none" visibility="hidden"></rect></g></svg></g></svg>